P1
# This is outputs from part 2 of day 11
43 6
0111000110010010111101110010000111001110000
0100101001010010100001001010000100101001000
0100101000010010111001001010000100101001000
0111001011010010100001110010000111001110000
0100001001010010100001000010000100001010000
0100000111001100111101000011110100001001000
