P1
# This is outputs of part 2
25 6
1111011100111101001011100
1000010010000101001010010
1110011100001001001010010
1000010010010001001011100
1000010010100001001010100
1111011100111100110010010
